<mxfile host="app.diagrams.net" modified="2020-08-08T11:51:19.740Z" agent="5.0 (Windows NT 10.0; Win64; x64) AppleWebKit/537.36 (KHTML, like Gecko) Chrome/84.0.4147.105 Safari/537.36" etag="zRUvwpfSilJnCMlGd8VE" version="13.6.1" type="github">
  <diagram id="R2lEEEUBdFMjLlhIrx00" name="Page-1">
    <mxGraphModel dx="1069" dy="577" grid="1" gridSize="10" guides="1" tooltips="1" connect="1" arrows="1" fold="1" page="1" pageScale="1" pageWidth="850" pageHeight="1100" math="0" shadow="0" extFonts="Permanent Marker^https://fonts.googleapis.com/css?family=Permanent+Marker">
      <root>
        <mxCell id="0" />
        <mxCell id="1" parent="0" />
        <mxCell id="OHU_KFe1FKuMNbBKO_Tu-63" style="edgeStyle=entityRelationEdgeStyle;rounded=0;orthogonalLoop=1;jettySize=auto;html=1;" parent="1" source="C-vyLk0tnHw3VtMMgP7b-2" target="C-vyLk0tnHw3VtMMgP7b-27" edge="1">
          <mxGeometry relative="1" as="geometry" />
        </mxCell>
        <mxCell id="C-vyLk0tnHw3VtMMgP7b-2" value="montage_job_queue" style="shape=table;startSize=30;container=1;collapsible=1;childLayout=tableLayout;fixedRows=1;rowLines=0;fontStyle=1;align=center;resizeLast=1;" parent="1" vertex="1">
          <mxGeometry x="450" y="115" width="340.0000000000002" height="160" as="geometry" />
        </mxCell>
        <mxCell id="C-vyLk0tnHw3VtMMgP7b-3" value="" style="shape=partialRectangle;collapsible=0;dropTarget=0;pointerEvents=0;fillColor=none;points=[[0,0.5],[1,0.5]];portConstraint=eastwest;top=0;left=0;right=0;bottom=1;" parent="C-vyLk0tnHw3VtMMgP7b-2" vertex="1">
          <mxGeometry y="30" width="340.0000000000002" height="30" as="geometry" />
        </mxCell>
        <mxCell id="C-vyLk0tnHw3VtMMgP7b-4" value="PK" style="shape=partialRectangle;overflow=hidden;connectable=0;fillColor=none;top=0;left=0;bottom=0;right=0;fontStyle=1;" parent="C-vyLk0tnHw3VtMMgP7b-3" vertex="1">
          <mxGeometry width="30" height="30" as="geometry" />
        </mxCell>
        <mxCell id="C-vyLk0tnHw3VtMMgP7b-5" value="视频剪辑队列，当队列大于n时，清空队列" style="shape=partialRectangle;overflow=hidden;connectable=0;fillColor=none;top=0;left=0;bottom=0;right=0;align=left;spacingLeft=6;fontStyle=5;" parent="C-vyLk0tnHw3VtMMgP7b-3" vertex="1">
          <mxGeometry x="30" width="310.0000000000002" height="30" as="geometry" />
        </mxCell>
        <mxCell id="C-vyLk0tnHw3VtMMgP7b-6" value="" style="shape=partialRectangle;collapsible=0;dropTarget=0;pointerEvents=0;fillColor=none;points=[[0,0.5],[1,0.5]];portConstraint=eastwest;top=0;left=0;right=0;bottom=0;" parent="C-vyLk0tnHw3VtMMgP7b-2" vertex="1">
          <mxGeometry y="60" width="340.0000000000002" height="30" as="geometry" />
        </mxCell>
        <mxCell id="C-vyLk0tnHw3VtMMgP7b-7" value="" style="shape=partialRectangle;overflow=hidden;connectable=0;fillColor=none;top=0;left=0;bottom=0;right=0;" parent="C-vyLk0tnHw3VtMMgP7b-6" vertex="1">
          <mxGeometry width="30" height="30" as="geometry" />
        </mxCell>
        <mxCell id="C-vyLk0tnHw3VtMMgP7b-8" value="video_id 视频id" style="shape=partialRectangle;overflow=hidden;connectable=0;fillColor=none;top=0;left=0;bottom=0;right=0;align=left;spacingLeft=6;" parent="C-vyLk0tnHw3VtMMgP7b-6" vertex="1">
          <mxGeometry x="30" width="310.0000000000002" height="30" as="geometry" />
        </mxCell>
        <mxCell id="C-vyLk0tnHw3VtMMgP7b-9" value="" style="shape=partialRectangle;collapsible=0;dropTarget=0;pointerEvents=0;fillColor=none;points=[[0,0.5],[1,0.5]];portConstraint=eastwest;top=0;left=0;right=0;bottom=0;" parent="C-vyLk0tnHw3VtMMgP7b-2" vertex="1">
          <mxGeometry y="90" width="340.0000000000002" height="30" as="geometry" />
        </mxCell>
        <mxCell id="C-vyLk0tnHw3VtMMgP7b-10" value="" style="shape=partialRectangle;overflow=hidden;connectable=0;fillColor=none;top=0;left=0;bottom=0;right=0;" parent="C-vyLk0tnHw3VtMMgP7b-9" vertex="1">
          <mxGeometry width="30" height="30" as="geometry" />
        </mxCell>
        <mxCell id="C-vyLk0tnHw3VtMMgP7b-11" value="save_path 视频地址" style="shape=partialRectangle;overflow=hidden;connectable=0;fillColor=none;top=0;left=0;bottom=0;right=0;align=left;spacingLeft=6;" parent="C-vyLk0tnHw3VtMMgP7b-9" vertex="1">
          <mxGeometry x="30" width="310.0000000000002" height="30" as="geometry" />
        </mxCell>
        <mxCell id="OHU_KFe1FKuMNbBKO_Tu-48" style="shape=partialRectangle;collapsible=0;dropTarget=0;pointerEvents=0;fillColor=none;points=[[0,0.5],[1,0.5]];portConstraint=eastwest;top=0;left=0;right=0;bottom=0;" parent="C-vyLk0tnHw3VtMMgP7b-2" vertex="1">
          <mxGeometry y="120" width="340.0000000000002" height="30" as="geometry" />
        </mxCell>
        <mxCell id="OHU_KFe1FKuMNbBKO_Tu-49" style="shape=partialRectangle;overflow=hidden;connectable=0;fillColor=none;top=0;left=0;bottom=0;right=0;" parent="OHU_KFe1FKuMNbBKO_Tu-48" vertex="1">
          <mxGeometry width="30" height="30" as="geometry" />
        </mxCell>
        <mxCell id="OHU_KFe1FKuMNbBKO_Tu-50" style="shape=partialRectangle;overflow=hidden;connectable=0;fillColor=none;top=0;left=0;bottom=0;right=0;align=left;spacingLeft=6;" parent="OHU_KFe1FKuMNbBKO_Tu-48" vertex="1">
          <mxGeometry x="30" width="310.0000000000002" height="30" as="geometry" />
        </mxCell>
        <mxCell id="OHU_KFe1FKuMNbBKO_Tu-76" value="montage_record" style="shape=table;startSize=30;container=1;collapsible=1;childLayout=tableLayout;fixedRows=1;rowLines=0;fontStyle=1;align=center;resizeLast=1;" parent="1" vertex="1">
          <mxGeometry x="450" y="310" width="340.0000000000002" height="340.0000000000001" as="geometry" />
        </mxCell>
        <mxCell id="OHU_KFe1FKuMNbBKO_Tu-77" value="" style="shape=partialRectangle;collapsible=0;dropTarget=0;pointerEvents=0;fillColor=none;points=[[0,0.5],[1,0.5]];portConstraint=eastwest;top=0;left=0;right=0;bottom=1;" parent="OHU_KFe1FKuMNbBKO_Tu-76" vertex="1">
          <mxGeometry y="30" width="340.0000000000002" height="30" as="geometry" />
        </mxCell>
        <mxCell id="OHU_KFe1FKuMNbBKO_Tu-78" value="PK" style="shape=partialRectangle;overflow=hidden;connectable=0;fillColor=none;top=0;left=0;bottom=0;right=0;fontStyle=1;" parent="OHU_KFe1FKuMNbBKO_Tu-77" vertex="1">
          <mxGeometry width="30" height="30" as="geometry" />
        </mxCell>
        <mxCell id="OHU_KFe1FKuMNbBKO_Tu-79" value="视频剪辑记录" style="shape=partialRectangle;overflow=hidden;connectable=0;fillColor=none;top=0;left=0;bottom=0;right=0;align=left;spacingLeft=6;fontStyle=5;" parent="OHU_KFe1FKuMNbBKO_Tu-77" vertex="1">
          <mxGeometry x="30" width="310.0000000000002" height="30" as="geometry" />
        </mxCell>
        <mxCell id="OHU_KFe1FKuMNbBKO_Tu-80" value="" style="shape=partialRectangle;collapsible=0;dropTarget=0;pointerEvents=0;fillColor=none;points=[[0,0.5],[1,0.5]];portConstraint=eastwest;top=0;left=0;right=0;bottom=0;" parent="OHU_KFe1FKuMNbBKO_Tu-76" vertex="1">
          <mxGeometry y="60" width="340.0000000000002" height="30" as="geometry" />
        </mxCell>
        <mxCell id="OHU_KFe1FKuMNbBKO_Tu-81" value="" style="shape=partialRectangle;overflow=hidden;connectable=0;fillColor=none;top=0;left=0;bottom=0;right=0;" parent="OHU_KFe1FKuMNbBKO_Tu-80" vertex="1">
          <mxGeometry width="30" height="30" as="geometry" />
        </mxCell>
        <mxCell id="OHU_KFe1FKuMNbBKO_Tu-82" value="videos  视频信息集合，包含视频信息以及保存地址等" style="shape=partialRectangle;overflow=hidden;connectable=0;fillColor=none;top=0;left=0;bottom=0;right=0;align=left;spacingLeft=6;" parent="OHU_KFe1FKuMNbBKO_Tu-80" vertex="1">
          <mxGeometry x="30" width="310.0000000000002" height="30" as="geometry" />
        </mxCell>
        <mxCell id="OHU_KFe1FKuMNbBKO_Tu-83" value="" style="shape=partialRectangle;collapsible=0;dropTarget=0;pointerEvents=0;fillColor=none;points=[[0,0.5],[1,0.5]];portConstraint=eastwest;top=0;left=0;right=0;bottom=0;" parent="OHU_KFe1FKuMNbBKO_Tu-76" vertex="1">
          <mxGeometry y="90" width="340.0000000000002" height="30" as="geometry" />
        </mxCell>
        <mxCell id="OHU_KFe1FKuMNbBKO_Tu-84" value="" style="shape=partialRectangle;overflow=hidden;connectable=0;fillColor=none;top=0;left=0;bottom=0;right=0;" parent="OHU_KFe1FKuMNbBKO_Tu-83" vertex="1">
          <mxGeometry width="30" height="30" as="geometry" />
        </mxCell>
        <mxCell id="OHU_KFe1FKuMNbBKO_Tu-85" value="status 状态：剪辑失败、等待、已上传、弃用" style="shape=partialRectangle;overflow=hidden;connectable=0;fillColor=none;top=0;left=0;bottom=0;right=0;align=left;spacingLeft=6;" parent="OHU_KFe1FKuMNbBKO_Tu-83" vertex="1">
          <mxGeometry x="30" width="310.0000000000002" height="30" as="geometry" />
        </mxCell>
        <mxCell id="OHU_KFe1FKuMNbBKO_Tu-86" style="shape=partialRectangle;collapsible=0;dropTarget=0;pointerEvents=0;fillColor=none;points=[[0,0.5],[1,0.5]];portConstraint=eastwest;top=0;left=0;right=0;bottom=0;" parent="OHU_KFe1FKuMNbBKO_Tu-76" vertex="1">
          <mxGeometry y="120" width="340.0000000000002" height="30" as="geometry" />
        </mxCell>
        <mxCell id="OHU_KFe1FKuMNbBKO_Tu-87" style="shape=partialRectangle;overflow=hidden;connectable=0;fillColor=none;top=0;left=0;bottom=0;right=0;" parent="OHU_KFe1FKuMNbBKO_Tu-86" vertex="1">
          <mxGeometry width="30" height="30" as="geometry" />
        </mxCell>
        <mxCell id="OHU_KFe1FKuMNbBKO_Tu-88" value="start_time 开始时间 时间戳" style="shape=partialRectangle;overflow=hidden;connectable=0;fillColor=none;top=0;left=0;bottom=0;right=0;align=left;spacingLeft=6;" parent="OHU_KFe1FKuMNbBKO_Tu-86" vertex="1">
          <mxGeometry x="30" width="310.0000000000002" height="30" as="geometry" />
        </mxCell>
        <mxCell id="OHU_KFe1FKuMNbBKO_Tu-91" style="shape=partialRectangle;collapsible=0;dropTarget=0;pointerEvents=0;fillColor=none;points=[[0,0.5],[1,0.5]];portConstraint=eastwest;top=0;left=0;right=0;bottom=0;" parent="OHU_KFe1FKuMNbBKO_Tu-76" vertex="1">
          <mxGeometry y="150" width="340.0000000000002" height="30" as="geometry" />
        </mxCell>
        <mxCell id="OHU_KFe1FKuMNbBKO_Tu-92" style="shape=partialRectangle;overflow=hidden;connectable=0;fillColor=none;top=0;left=0;bottom=0;right=0;" parent="OHU_KFe1FKuMNbBKO_Tu-91" vertex="1">
          <mxGeometry width="30" height="30" as="geometry" />
        </mxCell>
        <mxCell id="OHU_KFe1FKuMNbBKO_Tu-93" value="end_time 结束时间 时间戳" style="shape=partialRectangle;overflow=hidden;connectable=0;fillColor=none;top=0;left=0;bottom=0;right=0;align=left;spacingLeft=6;" parent="OHU_KFe1FKuMNbBKO_Tu-91" vertex="1">
          <mxGeometry x="30" width="310.0000000000002" height="30" as="geometry" />
        </mxCell>
        <mxCell id="OHU_KFe1FKuMNbBKO_Tu-94" style="shape=partialRectangle;collapsible=0;dropTarget=0;pointerEvents=0;fillColor=none;points=[[0,0.5],[1,0.5]];portConstraint=eastwest;top=0;left=0;right=0;bottom=0;" parent="OHU_KFe1FKuMNbBKO_Tu-76" vertex="1">
          <mxGeometry y="180" width="340.0000000000002" height="30" as="geometry" />
        </mxCell>
        <mxCell id="OHU_KFe1FKuMNbBKO_Tu-95" style="shape=partialRectangle;overflow=hidden;connectable=0;fillColor=none;top=0;left=0;bottom=0;right=0;" parent="OHU_KFe1FKuMNbBKO_Tu-94" vertex="1">
          <mxGeometry width="30" height="30" as="geometry" />
        </mxCell>
        <mxCell id="OHU_KFe1FKuMNbBKO_Tu-96" value="save_path 生成视频保存地址" style="shape=partialRectangle;overflow=hidden;connectable=0;fillColor=none;top=0;left=0;bottom=0;right=0;align=left;spacingLeft=6;" parent="OHU_KFe1FKuMNbBKO_Tu-94" vertex="1">
          <mxGeometry x="30" width="310.0000000000002" height="30" as="geometry" />
        </mxCell>
        <mxCell id="OHU_KFe1FKuMNbBKO_Tu-97" style="shape=partialRectangle;collapsible=0;dropTarget=0;pointerEvents=0;fillColor=none;points=[[0,0.5],[1,0.5]];portConstraint=eastwest;top=0;left=0;right=0;bottom=0;" parent="OHU_KFe1FKuMNbBKO_Tu-76" vertex="1">
          <mxGeometry y="210" width="340.0000000000002" height="30" as="geometry" />
        </mxCell>
        <mxCell id="OHU_KFe1FKuMNbBKO_Tu-98" style="shape=partialRectangle;overflow=hidden;connectable=0;fillColor=none;top=0;left=0;bottom=0;right=0;" parent="OHU_KFe1FKuMNbBKO_Tu-97" vertex="1">
          <mxGeometry width="30" height="30" as="geometry" />
        </mxCell>
        <mxCell id="OHU_KFe1FKuMNbBKO_Tu-99" value="title   视频标题(在上传时填写)" style="shape=partialRectangle;overflow=hidden;connectable=0;fillColor=none;top=0;left=0;bottom=0;right=0;align=left;spacingLeft=6;" parent="OHU_KFe1FKuMNbBKO_Tu-97" vertex="1">
          <mxGeometry x="30" width="310.0000000000002" height="30" as="geometry" />
        </mxCell>
        <mxCell id="OHU_KFe1FKuMNbBKO_Tu-100" style="shape=partialRectangle;collapsible=0;dropTarget=0;pointerEvents=0;fillColor=none;points=[[0,0.5],[1,0.5]];portConstraint=eastwest;top=0;left=0;right=0;bottom=0;" parent="OHU_KFe1FKuMNbBKO_Tu-76" vertex="1">
          <mxGeometry y="240" width="340.0000000000002" height="30" as="geometry" />
        </mxCell>
        <mxCell id="OHU_KFe1FKuMNbBKO_Tu-101" style="shape=partialRectangle;overflow=hidden;connectable=0;fillColor=none;top=0;left=0;bottom=0;right=0;" parent="OHU_KFe1FKuMNbBKO_Tu-100" vertex="1">
          <mxGeometry width="30" height="30" as="geometry" />
        </mxCell>
        <mxCell id="OHU_KFe1FKuMNbBKO_Tu-102" value="introduction 视频简介（格式化来源信息）" style="shape=partialRectangle;overflow=hidden;connectable=0;fillColor=none;top=0;left=0;bottom=0;right=0;align=left;spacingLeft=6;" parent="OHU_KFe1FKuMNbBKO_Tu-100" vertex="1">
          <mxGeometry x="30" width="310.0000000000002" height="30" as="geometry" />
        </mxCell>
        <mxCell id="OHU_KFe1FKuMNbBKO_Tu-103" style="shape=partialRectangle;collapsible=0;dropTarget=0;pointerEvents=0;fillColor=none;points=[[0,0.5],[1,0.5]];portConstraint=eastwest;top=0;left=0;right=0;bottom=0;" parent="OHU_KFe1FKuMNbBKO_Tu-76" vertex="1">
          <mxGeometry y="270" width="340.0000000000002" height="30" as="geometry" />
        </mxCell>
        <mxCell id="OHU_KFe1FKuMNbBKO_Tu-104" style="shape=partialRectangle;overflow=hidden;connectable=0;fillColor=none;top=0;left=0;bottom=0;right=0;" parent="OHU_KFe1FKuMNbBKO_Tu-103" vertex="1">
          <mxGeometry width="30" height="30" as="geometry" />
        </mxCell>
        <mxCell id="OHU_KFe1FKuMNbBKO_Tu-105" value="video_duration 视频时长" style="shape=partialRectangle;overflow=hidden;connectable=0;fillColor=none;top=0;left=0;bottom=0;right=0;align=left;spacingLeft=6;" parent="OHU_KFe1FKuMNbBKO_Tu-103" vertex="1">
          <mxGeometry x="30" width="310.0000000000002" height="30" as="geometry" />
        </mxCell>
        <mxCell id="OHU_KFe1FKuMNbBKO_Tu-106" style="shape=partialRectangle;collapsible=0;dropTarget=0;pointerEvents=0;fillColor=none;points=[[0,0.5],[1,0.5]];portConstraint=eastwest;top=0;left=0;right=0;bottom=0;" parent="OHU_KFe1FKuMNbBKO_Tu-76" vertex="1">
          <mxGeometry y="300" width="340.0000000000002" height="30" as="geometry" />
        </mxCell>
        <mxCell id="OHU_KFe1FKuMNbBKO_Tu-107" style="shape=partialRectangle;overflow=hidden;connectable=0;fillColor=none;top=0;left=0;bottom=0;right=0;" parent="OHU_KFe1FKuMNbBKO_Tu-106" vertex="1">
          <mxGeometry width="30" height="30" as="geometry" />
        </mxCell>
        <mxCell id="OHU_KFe1FKuMNbBKO_Tu-108" value="upload_date 上传时间" style="shape=partialRectangle;overflow=hidden;connectable=0;fillColor=none;top=0;left=0;bottom=0;right=0;align=left;spacingLeft=6;" parent="OHU_KFe1FKuMNbBKO_Tu-106" vertex="1">
          <mxGeometry x="30" width="310.0000000000002" height="30" as="geometry" />
        </mxCell>
        <mxCell id="C-vyLk0tnHw3VtMMgP7b-23" value="video_collected" style="shape=table;startSize=30;container=1;collapsible=1;childLayout=tableLayout;fixedRows=1;rowLines=0;fontStyle=1;align=center;resizeLast=1;" parent="1" vertex="1">
          <mxGeometry x="50" y="120" width="280" height="220.0000000000001" as="geometry">
            <mxRectangle x="70" y="120" width="120" height="30" as="alternateBounds" />
          </mxGeometry>
        </mxCell>
        <mxCell id="OHU_KFe1FKuMNbBKO_Tu-45" style="shape=partialRectangle;collapsible=0;dropTarget=0;pointerEvents=0;fillColor=none;points=[[0,0.5],[1,0.5]];portConstraint=eastwest;top=0;left=0;right=0;bottom=1;" parent="C-vyLk0tnHw3VtMMgP7b-23" vertex="1">
          <mxGeometry y="30" width="280" height="30" as="geometry" />
        </mxCell>
        <mxCell id="OHU_KFe1FKuMNbBKO_Tu-46" style="shape=partialRectangle;overflow=hidden;connectable=0;fillColor=none;top=0;left=0;bottom=0;right=0;fontStyle=1;" parent="OHU_KFe1FKuMNbBKO_Tu-45" vertex="1">
          <mxGeometry width="30" height="30" as="geometry" />
        </mxCell>
        <mxCell id="OHU_KFe1FKuMNbBKO_Tu-47" value="收集的视频分享，包含视频解析后的信息" style="shape=partialRectangle;overflow=hidden;connectable=0;fillColor=none;top=0;left=0;bottom=0;right=0;align=left;spacingLeft=6;fontStyle=5;" parent="OHU_KFe1FKuMNbBKO_Tu-45" vertex="1">
          <mxGeometry x="30" width="250" height="30" as="geometry" />
        </mxCell>
        <mxCell id="C-vyLk0tnHw3VtMMgP7b-27" value="" style="shape=partialRectangle;collapsible=0;dropTarget=0;pointerEvents=0;fillColor=none;points=[[0,0.5],[1,0.5]];portConstraint=eastwest;top=0;left=0;right=0;bottom=0;" parent="C-vyLk0tnHw3VtMMgP7b-23" vertex="1">
          <mxGeometry y="60" width="280" height="30" as="geometry" />
        </mxCell>
        <mxCell id="C-vyLk0tnHw3VtMMgP7b-28" value="" style="shape=partialRectangle;overflow=hidden;connectable=0;fillColor=none;top=0;left=0;bottom=0;right=0;" parent="C-vyLk0tnHw3VtMMgP7b-27" vertex="1">
          <mxGeometry width="30" height="30" as="geometry" />
        </mxCell>
        <mxCell id="C-vyLk0tnHw3VtMMgP7b-29" value="full_msg 完整的分享文本" style="shape=partialRectangle;overflow=hidden;connectable=0;fillColor=none;top=0;left=0;bottom=0;right=0;align=left;spacingLeft=6;" parent="C-vyLk0tnHw3VtMMgP7b-27" vertex="1">
          <mxGeometry x="30" width="250" height="30" as="geometry" />
        </mxCell>
        <mxCell id="OHU_KFe1FKuMNbBKO_Tu-64" style="shape=partialRectangle;collapsible=0;dropTarget=0;pointerEvents=0;fillColor=none;points=[[0,0.5],[1,0.5]];portConstraint=eastwest;top=0;left=0;right=0;bottom=0;" parent="C-vyLk0tnHw3VtMMgP7b-23" vertex="1">
          <mxGeometry y="90" width="280" height="30" as="geometry" />
        </mxCell>
        <mxCell id="OHU_KFe1FKuMNbBKO_Tu-65" style="shape=partialRectangle;overflow=hidden;connectable=0;fillColor=none;top=0;left=0;bottom=0;right=0;" parent="OHU_KFe1FKuMNbBKO_Tu-64" vertex="1">
          <mxGeometry width="30" height="30" as="geometry" />
        </mxCell>
        <mxCell id="OHU_KFe1FKuMNbBKO_Tu-66" value="video_url 视频分享链接(保留来源信息)" style="shape=partialRectangle;overflow=hidden;connectable=0;fillColor=none;top=0;left=0;bottom=0;right=0;align=left;spacingLeft=6;" parent="OHU_KFe1FKuMNbBKO_Tu-64" vertex="1">
          <mxGeometry x="30" width="250" height="30" as="geometry" />
        </mxCell>
        <mxCell id="OHU_KFe1FKuMNbBKO_Tu-53" style="shape=partialRectangle;collapsible=0;dropTarget=0;pointerEvents=0;fillColor=none;points=[[0,0.5],[1,0.5]];portConstraint=eastwest;top=0;left=0;right=0;bottom=0;" parent="C-vyLk0tnHw3VtMMgP7b-23" vertex="1">
          <mxGeometry y="120" width="280" height="30" as="geometry" />
        </mxCell>
        <mxCell id="OHU_KFe1FKuMNbBKO_Tu-54" style="shape=partialRectangle;overflow=hidden;connectable=0;fillColor=none;top=0;left=0;bottom=0;right=0;" parent="OHU_KFe1FKuMNbBKO_Tu-53" vertex="1">
          <mxGeometry width="30" height="30" as="geometry" />
        </mxCell>
        <mxCell id="OHU_KFe1FKuMNbBKO_Tu-55" value="video_info 视频解析后的信息" style="shape=partialRectangle;overflow=hidden;connectable=0;fillColor=none;top=0;left=0;bottom=0;right=0;align=left;spacingLeft=6;" parent="OHU_KFe1FKuMNbBKO_Tu-53" vertex="1">
          <mxGeometry x="30" width="250" height="30" as="geometry" />
        </mxCell>
        <mxCell id="OHU_KFe1FKuMNbBKO_Tu-70" style="shape=partialRectangle;collapsible=0;dropTarget=0;pointerEvents=0;fillColor=none;points=[[0,0.5],[1,0.5]];portConstraint=eastwest;top=0;left=0;right=0;bottom=0;" parent="C-vyLk0tnHw3VtMMgP7b-23" vertex="1">
          <mxGeometry y="150" width="280" height="30" as="geometry" />
        </mxCell>
        <mxCell id="OHU_KFe1FKuMNbBKO_Tu-71" style="shape=partialRectangle;overflow=hidden;connectable=0;fillColor=none;top=0;left=0;bottom=0;right=0;" parent="OHU_KFe1FKuMNbBKO_Tu-70" vertex="1">
          <mxGeometry width="30" height="30" as="geometry" />
        </mxCell>
        <mxCell id="OHU_KFe1FKuMNbBKO_Tu-72" value="download_status下载状态" style="shape=partialRectangle;overflow=hidden;connectable=0;fillColor=none;top=0;left=0;bottom=0;right=0;align=left;spacingLeft=6;" parent="OHU_KFe1FKuMNbBKO_Tu-70" vertex="1">
          <mxGeometry x="30" width="250" height="30" as="geometry" />
        </mxCell>
        <mxCell id="OHU_KFe1FKuMNbBKO_Tu-73" style="shape=partialRectangle;collapsible=0;dropTarget=0;pointerEvents=0;fillColor=none;points=[[0,0.5],[1,0.5]];portConstraint=eastwest;top=0;left=0;right=0;bottom=0;" parent="C-vyLk0tnHw3VtMMgP7b-23" vertex="1">
          <mxGeometry y="180" width="280" height="30" as="geometry" />
        </mxCell>
        <mxCell id="OHU_KFe1FKuMNbBKO_Tu-74" style="shape=partialRectangle;overflow=hidden;connectable=0;fillColor=none;top=0;left=0;bottom=0;right=0;" parent="OHU_KFe1FKuMNbBKO_Tu-73" vertex="1">
          <mxGeometry width="30" height="30" as="geometry" />
        </mxCell>
        <mxCell id="OHU_KFe1FKuMNbBKO_Tu-75" value="save_path 保存地址" style="shape=partialRectangle;overflow=hidden;connectable=0;fillColor=none;top=0;left=0;bottom=0;right=0;align=left;spacingLeft=6;" parent="OHU_KFe1FKuMNbBKO_Tu-73" vertex="1">
          <mxGeometry x="30" width="250" height="30" as="geometry" />
        </mxCell>
        <mxCell id="OHU_KFe1FKuMNbBKO_Tu-90" style="edgeStyle=entityRelationEdgeStyle;rounded=0;orthogonalLoop=1;jettySize=auto;html=1;" parent="1" source="OHU_KFe1FKuMNbBKO_Tu-80" target="C-vyLk0tnHw3VtMMgP7b-27" edge="1">
          <mxGeometry relative="1" as="geometry" />
        </mxCell>
      </root>
    </mxGraphModel>
  </diagram>
</mxfile>
